<?xml version="1.0" standalone="no"?>
<!DOCTYPE svg PUBLIC "-//W3C//DTD SVG 20010904//EN"
 "http://www.w3.org/TR/2001/REC-SVG-20010904/DTD/svg10.dtd">
<svg version="1.0" xmlns="http://www.w3.org/2000/svg"
 width="2000.000000pt" height="2000.000000pt" viewBox="0 0 2000.000000 2000.000000"
 preserveAspectRatio="xMidYMid meet">
<metadata>
Created by potrace 1.14, written by Peter Selinger 2001-2017
</metadata>
<g transform="translate(0.000000,2000.000000) scale(0.100000,-0.100000)"
fill="#000000" stroke="none">
<path d="M0 10000 l0 -10000 10000 0 10000 0 0 10000 0 10000 -10000 0 -10000
0 0 -10000z m9896 9759 c32 -6 77 -19 99 -29 22 -10 67 -23 99 -29 33 -6 69
-20 80 -31 12 -10 39 -26 61 -36 40 -16 119 -69 163 -108 65 -57 149 -145 165
-172 9 -16 28 -44 41 -61 13 -18 27 -50 31 -70 4 -21 21 -69 38 -108 l32 -70
0 -2840 0 -2840 -27 -60 c-15 -33 -34 -86 -43 -117 -9 -33 -31 -75 -51 -99
-19 -22 -34 -46 -34 -51 0 -34 -284 -268 -324 -268 -7 0 -27 -11 -45 -25 -19
-13 -59 -30 -90 -36 -31 -7 -72 -20 -92 -30 -39 -19 -117 -35 -224 -46 -38 -4
-848 -8 -1800 -10 -952 -1 -1745 -5 -1762 -8 -68 -12 -63 174 -63 -2332 0
-2000 -2 -2271 -15 -2290 -8 -12 -30 -31 -49 -42 -33 -21 -43 -21 -605 -21
-615 0 -599 -1 -648 52 l-23 24 -3 1180 c-3 1078 -4 1184 -20 1234 -16 50 -17
152 -17 1266 0 1210 0 1211 -21 1238 l-20 26 -1472 0 c-1141 -1 -1476 -3
-1488 -13 -9 -7 -21 -22 -27 -34 -16 -29 -17 -2275 -2 -2319 6 -17 58 -74 117
-129 59 -55 121 -116 138 -135 16 -19 57 -59 90 -90 33 -30 96 -89 140 -131
44 -42 109 -102 144 -133 36 -31 74 -70 86 -86 12 -16 60 -64 107 -107 209
-189 324 -298 343 -323 11 -14 49 -52 85 -84 36 -32 94 -87 130 -121 36 -34
96 -90 135 -125 38 -34 79 -75 90 -90 11 -15 70 -72 130 -127 61 -54 126 -114
145 -133 19 -19 64 -62 100 -96 36 -33 95 -92 132 -130 37 -38 104 -103 149
-144 45 -41 145 -136 221 -210 76 -74 178 -171 225 -215 48 -44 150 -141 228
-217 77 -75 160 -155 185 -177 25 -23 123 -117 218 -209 95 -92 196 -187 223
-212 28 -25 128 -120 222 -211 95 -92 200 -194 234 -226 33 -33 70 -78 81 -99
11 -21 30 -48 42 -59 12 -11 33 -42 47 -70 14 -27 34 -60 44 -75 10 -14 41
-94 69 -179 l50 -154 -2 -1466 c-3 -1336 -4 -1470 -20 -1506 -9 -22 -30 -75
-46 -118 -17 -43 -46 -97 -66 -120 -111 -132 -157 -178 -206 -207 -150 -87
-264 -137 -345 -151 -38 -6 -86 -19 -105 -28 -32 -15 -209 -16 -2005 -19
-1744 -2 -1976 0 -2025 13 -30 9 -97 24 -148 35 -51 11 -112 31 -135 44 -23
13 -58 29 -78 35 -20 7 -45 21 -55 32 -10 11 -36 28 -58 38 -47 21 -185 152
-209 196 -8 17 -29 47 -46 69 -17 21 -36 57 -41 80 -6 22 -17 64 -25 91 -48
175 -46 101 -43 1627 2 1154 5 1429 16 1440 10 10 133 14 590 16 317 2 596 0
620 -3 77 -11 72 89 72 -1393 0 -937 3 -1328 11 -1351 6 -17 19 -36 29 -41 12
-6 549 -10 1488 -10 1432 0 1470 0 1493 19 l24 19 3 1299 c2 714 0 1317 -3
1341 -7 48 -24 66 -271 297 -70 66 -192 183 -270 260 -78 77 -179 174 -223
215 -45 41 -146 138 -224 215 -79 77 -201 194 -271 260 -71 66 -170 161 -220
210 -95 92 -493 476 -575 553 -25 24 -125 120 -221 213 -96 93 -196 188 -222
211 -26 24 -100 97 -165 162 -65 65 -127 126 -137 135 -11 9 -36 32 -56 51
-20 19 -79 73 -130 120 -52 47 -105 98 -120 114 -37 43 -53 58 -194 191 -71
66 -192 182 -270 257 -77 76 -159 155 -181 175 -23 21 -70 65 -105 98 -70 66
-223 235 -280 309 -19 25 -44 69 -56 98 -11 29 -32 70 -47 91 -14 21 -31 64
-36 95 -6 31 -18 77 -27 102 -37 105 -39 166 -39 1380 0 856 4 1200 12 1240
27 126 71 262 95 288 13 15 36 45 50 67 54 81 178 194 244 221 22 9 46 23 55
31 15 12 77 39 210 88 19 8 100 22 180 31 131 17 294 19 1799 24 1602 5 1656
6 1683 24 15 10 32 27 37 37 6 11 10 1084 10 2914 l0 2896 33 14 c27 12 398
14 2513 15 1716 0 2499 -3 2540 -11z m1265 -8120 c86 -7 152 -18 184 -31 27
-11 74 -24 104 -30 29 -5 83 -25 118 -44 36 -19 71 -34 78 -34 8 0 29 -13 47
-29 18 -15 47 -35 63 -44 58 -31 191 -178 223 -247 12 -25 31 -56 42 -70 48
-59 50 -117 50 -1366 0 -1088 2 -1200 25 -1231 0 -1 23 6 49 16 29 11 112 69
208 146 264 211 352 273 420 299 42 16 87 17 441 15 385 -2 395 -2 428 19 41
25 78 64 108 114 46 78 240 232 341 272 25 10 65 30 90 46 74 47 111 59 216
65 150 10 252 -6 327 -52 34 -21 87 -49 117 -64 258 -123 440 -361 440 -575 0
-169 -137 -386 -315 -499 -79 -51 -206 -112 -250 -120 -88 -16 -223 -22 -355
-14 -122 7 -149 12 -217 39 -175 70 -274 143 -382 280 -39 49 -90 102 -112
117 l-41 27 -306 -2 c-387 -3 -375 1 -572 -157 -41 -33 -99 -78 -130 -101 -82
-61 -401 -315 -515 -411 -34 -28 -85 -65 -113 -82 -103 -60 -110 -61 -627 -61
-524 0 -505 -2 -525 68 -12 46 -13 176 -1 220 9 29 6 37 -21 67 l-30 35 -2
1238 -1 1237 -30 15 c-26 13 -217 15 -1554 18 -1355 2 -1527 0 -1548 -13 l-23
-15 0 -4737 c0 -4393 1 -4738 17 -4755 15 -17 77 -18 1545 -18 1281 0 1534 2
1562 14 l33 14 0 1347 1 1347 30 31 30 32 -10 85 c-13 100 -4 190 22 222 l18
23 489 0 489 0 76 -37 c49 -25 151 -98 293 -210 119 -95 232 -184 250 -198 18
-14 68 -52 111 -85 44 -33 111 -86 149 -118 97 -81 162 -123 231 -149 56 -21
72 -22 348 -20 336 2 347 5 417 96 146 188 186 224 335 299 144 72 189 81 409
82 227 0 272 -9 410 -78 176 -88 268 -173 347 -324 87 -164 88 -303 5 -466
-49 -94 -112 -167 -205 -235 -174 -126 -311 -163 -612 -166 l-195 -1 -75 34
c-41 18 -86 41 -100 51 -14 9 -52 34 -84 56 -74 48 -166 140 -218 217 -21 31
-57 69 -78 83 l-39 26 -408 2 c-374 1 -411 3 -447 19 -48 23 -176 117 -396
291 -91 72 -186 141 -212 153 -42 20 -48 21 -60 6 -11 -13 -14 -265 -18 -1372
-6 -1466 -4 -1427 -58 -1484 -12 -12 -30 -44 -42 -70 -24 -54 -201 -237 -230
-237 -5 0 -19 -9 -30 -20 -11 -11 -44 -32 -73 -46 -28 -13 -68 -33 -87 -44
-19 -10 -43 -19 -53 -20 -11 0 -60 -15 -110 -32 l-92 -33 -2095 0 c-2008 0
-2097 1 -2140 18 -25 10 -79 29 -121 41 -42 13 -92 32 -110 43 -19 12 -45 24
-59 28 -72 22 -279 205 -318 281 -11 22 -28 46 -37 54 -27 22 -42 61 -54 137
-6 40 -18 98 -26 130 -13 50 -15 637 -15 4938 l0 4880 29 137 c16 75 37 149
46 165 9 15 28 49 43 74 30 52 119 147 184 197 24 18 63 48 86 67 24 19 50 35
57 35 7 0 39 14 71 31 33 17 94 39 137 50 42 11 89 24 105 30 86 34 193 36
2083 38 1299 1 1907 -2 2000 -10z m6869 -2829 c105 -12 199 -43 321 -106 76
-39 111 -66 189 -144 138 -137 180 -228 180 -392 0 -147 -51 -264 -164 -380
-91 -93 -174 -147 -312 -202 -222 -90 -458 -89 -680 3 -167 70 -289 163 -369
281 -57 84 -104 126 -154 135 -20 4 -162 6 -316 6 -339 -2 -344 -3 -476 -103
-169 -128 -942 -738 -1144 -903 -89 -72 -130 -95 -212 -116 -74 -18 -128 -19
-2017 -18 -1068 0 -1959 3 -1980 7 -65 12 -81 44 -81 166 0 127 11 150 81 160
63 8 3597 6 3702 -2 133 -12 195 8 312 100 19 15 76 59 125 98 126 98 124 96
584 468 106 86 208 168 226 182 18 14 50 38 71 55 22 16 66 53 100 81 77 66
165 118 229 133 36 9 151 12 405 10 248 -2 367 1 396 9 43 13 110 75 151 142
29 48 169 167 248 212 186 106 370 143 585 118z m1098 -2110 c67 -12 239 -88
313 -138 30 -20 90 -75 134 -122 44 -47 101 -102 127 -122 60 -48 72 -87 73
-238 0 -183 5 -173 -163 -340 -162 -160 -212 -194 -382 -263 l-105 -42 -205 0
-205 0 -105 43 c-58 24 -127 58 -155 75 -79 51 -178 140 -246 223 -34 42 -83
90 -108 105 l-45 29 -3596 0 -3597 0 -24 26 c-22 23 -24 33 -24 127 0 133 14
161 82 171 26 3 1649 6 3606 6 l3559 -1 44 26 c24 14 69 58 101 98 122 153
222 229 390 297 82 32 122 42 195 48 108 9 260 5 336 -8z m-4262 -1435 c63 -9
172 -66 249 -132 95 -80 529 -427 749 -598 98 -77 220 -173 270 -212 171 -136
214 -164 274 -178 76 -17 623 -14 667 4 42 17 81 56 120 122 31 51 113 134
182 185 48 36 184 100 273 129 74 25 105 29 237 33 142 4 159 2 243 -22 197
-56 303 -116 421 -238 117 -120 168 -237 169 -383 0 -136 -44 -242 -149 -360
-79 -89 -147 -139 -264 -196 -145 -70 -231 -89 -397 -90 -164 -1 -248 18 -396
90 -157 76 -240 146 -346 293 -77 106 -57 102 -523 108 -409 6 -431 8 -500 49
-33 19 -450 343 -595 462 -41 34 -194 157 -340 273 -443 355 -421 342 -585
335 -60 -2 -930 -4 -1931 -4 -1727 0 -1823 1 -1841 18 -54 48 -58 241 -7 296
7 8 33 17 56 20 56 8 3911 4 3964 -4z"/>
<path d="M6185 18789 l-35 -31 0 -2560 c0 -2775 -3 -2607 52 -2622 30 -8 3076
-8 3116 0 23 5 34 14 41 37 8 21 11 814 11 2586 0 2231 -2 2559 -15 2578 -8
11 -34 26 -59 32 -32 8 -469 11 -1560 11 l-1515 0 -36 -31z"/>
</g>
</svg>
